<?xml version="1.0" encoding="utf-8"?>
<!-- Generator: Adobe Illustrator 20.1.0, SVG Export Plug-In . SVG Version: 6.00 Build 0)  -->
<svg version="1.1" id="Слой_1" xmlns="http://www.w3.org/2000/svg" xmlns:xlink="http://www.w3.org/1999/xlink" x="0px" y="0px"
	 viewBox="0 0 4000 150" style="enable-background:new 0 0 4000 150;" xml:space="preserve">
<g>
	<path class="st0" d="M3975,88.5c-8.1,0-16,1.3-23.3,3.8c-8.3-28.8-34.4-49.8-65.2-49.8c-34.2,0-62.5,25.8-67.3,59.4
		c-11-7.8-24.3-12.4-38.7-12.4c-22.1,0-41.7,10.7-54.1,27.4c-6.9-12.7-20.2-21.4-35.4-21.4c-21.4,0-38.9,17-40.4,38.5
		c-7.7-11.2-20.3-18.5-34.6-18.5c-9,0-17.3,2.9-24.2,7.8c-11.2-27.5-37.8-46.8-68.8-46.8c-13.1,0-25.4,3.5-36.1,9.5
		c-10.9-23.4-34.3-39.5-61.4-39.5c-34.2,0-62.5,25.8-67.3,59.4c-11-7.8-24.3-12.4-38.7-12.4c-22.1,0-41.7,10.7-54.1,27.4
		c-6.9-12.7-20.2-21.4-35.4-21.4c-21.4,0-38.9,17-40.4,38.5c-7.7-11.2-20.3-18.5-34.6-18.5c-9,0-17.3,2.9-24.2,7.8
		c-11.2-27.5-37.8-46.8-68.8-46.8c-8.1,0-16,1.3-23.3,3.8c-8.3-28.8-34.4-49.8-65.2-49.8c-34.2,0-62.5,25.8-67.3,59.4
		c-11-7.8-24.3-12.4-38.7-12.4c-22.1,0-41.7,10.7-54.1,27.4c-6.9-12.7-20.2-21.4-35.4-21.4c-21.4,0-38.9,17-40.4,38.5
		c-7.7-11.2-20.3-18.5-34.6-18.5c-9,0-17.3,2.9-24.2,7.8c-11.2-27.5-37.8-46.8-68.8-46.8c-22.4,0-42.5,10.1-56.2,26.1
		c-25.7-49.4-76.6-83.1-135.3-83.1c-43.2,0-82.2,18.3-110,47.6c-6.2-1.7-12.7-2.6-19.5-2.6c-30.2,0-56.3,18.4-67.9,44.8
		c-13.6-15.2-33.2-24.8-55.1-24.8c-6.4,0-12.7,0.8-18.7,2.4c-27.8-39-72.9-64.4-123.8-64.4c-51.3,0-96.7,25.8-124.5,65.3
		c-11.4-7.1-24.7-11.3-39-11.3c-27.6,0-51.6,15.3-64.5,38c-7.7-6.3-17.4-10-28-10c-2.6,0-5.1,0.2-7.5,0.6
		c-24.5-53-77.3-89.6-138.5-89.6c-54.9,0-103,29.5-130,73.8c-5.7-1.8-11.7-2.8-18-2.8c-21.8,0-40.9,11.7-51.7,29.3
		c-3-0.9-6.1-1.3-9.3-1.3c-12.5,0-23.4,6.9-29.3,17.3c-5.4-25.3-27.4-44.3-53.7-44.3c-11.8,0-22.7,3.8-31.6,10.3
		c-13-28.5-41.4-48.3-74.4-48.3c-34.7,0-64.3,22-76.3,53c-10.4-9.3-23.9-15-38.7-15c-10.1,0-19.6,2.6-27.9,7.3
		c-8.5-28.5-34.4-49.3-65.1-49.3c-34.2,0-62.5,25.8-67.3,59.4c-11-7.8-24.3-12.4-38.7-12.4c-22.1,0-41.7,10.7-54.1,27.4
		c-6.9-12.7-20.2-21.4-35.4-21.4c-9.7,0-18.5,3.5-25.5,9.3c-2.9-0.8-5.9-1.3-9-1.3c-12.5,0-23.4,6.9-29.3,17.3
		c-5.4-25.3-27.4-44.3-53.7-44.3c-11.8,0-22.7,3.8-31.6,10.3c-13-28.5-41.4-48.3-74.4-48.3c-34.7,0-64.3,22-76.3,53
		c-10.4-9.3-23.9-15-38.7-15c-10.1,0-19.6,2.6-27.9,7.3c-8.5-28.5-34.4-49.3-65.1-49.3c-34.2,0-62.5,25.8-67.3,59.4
		c-11-7.8-24.3-12.4-38.7-12.4c-22.1,0-41.7,10.7-54.1,27.4c-6.9-12.7-20.2-21.4-35.4-21.4c-21.4,0-38.9,17-40.4,38.5
		c-7.7-11.2-20.3-18.5-34.6-18.5c-9,0-17.3,2.9-24.2,7.8C82.6,82.8,56,63.5,25,63.5c-41.1,0-74.5,34-74.5,76c0,42,33.4,76,74.5,76
		c27.1,0,50.9-14.8,63.9-36.9c7.6,7.4,17.8,11.9,29.1,11.9c22.8,0,41.3-18.5,42.4-41.8c7.4,10.2,19.2,16.8,32.6,16.8
		c8.4,0,16.2-2.6,22.6-7.1c5.7,32.4,33.5,57.1,66.9,57.1c34.2,0,62.5-25.8,67.3-59.4c11,7.8,24.3,12.4,38.7,12.4
		c14.3,0,27.6-4.6,38.6-12.3c8.9,21.9,29.9,37.3,54.4,37.3c20.4,0,38.4-10.7,49-27c14.9,20.6,38.9,34,66,34c27,0,51-13.3,65.9-33.8
		c10,11,24.3,17.8,40.1,17.8c23.8,0,44.1-15.5,51.7-37.3c5.2,12.5,17.2,21.3,31.3,21.3c4.1,0,8.1-0.8,11.8-2.2
		c6.5,4.5,14.3,7.2,22.7,7.2c8.4,0,16.2-2.6,22.6-7.1c5.7,32.4,33.5,57.1,66.9,57.1c34.2,0,62.5-25.8,67.3-59.4
		c11,7.8,24.3,12.4,38.7,12.4c14.3,0,27.6-4.6,38.6-12.3c8.9,21.9,29.9,37.3,54.4,37.3c20.4,0,38.4-10.7,49-27
		c14.9,20.6,38.9,34,66,34c27,0,51-13.3,65.9-33.8c10,11,24.3,17.8,40.1,17.8c23.8,0,44.1-15.5,51.7-37.3
		c5.2,12.5,17.2,21.3,31.3,21.3c3.4,0,6.7-0.5,9.8-1.5c10.9,17.1,29.7,28.5,51.2,28.5c0,0,0.1,0,0.1,0c17.3,66.8,77,116,147.9,116
		c76.3,0,139.5-56.9,151.1-131.3c7.9-0.9,15.2-3.9,21.4-8.5c12.4,24.3,37.3,40.8,66,40.8c6.1,0,12.1-0.8,17.8-2.2
		c19.8,62.8,77.5,108.2,145.7,108.2c64.4,0,119.5-40.6,142.1-98c0.1,0,0.3,0,0.4,0c30.2,0,56.3-18.4,67.9-44.8
		c9.6,10.7,22.1,18.6,36.3,22.4c16.8,67.5,76.8,117.4,148.3,117.4c71.3,0,131.3-49.8,148.2-117.2c12.2,8.9,27.1,14.2,43.3,14.2
		c27.1,0,50.9-14.8,63.9-36.9c7.6,7.4,17.8,11.9,29.1,11.9c22.8,0,41.3-18.5,42.4-41.8c7.4,10.2,19.2,16.8,32.6,16.8
		c8.4,0,16.2-2.6,22.6-7.1c5.7,32.4,33.5,57.1,66.9,57.1c34.2,0,62.5-25.8,67.3-59.4c11,7.8,24.3,12.4,38.7,12.4
		c5.3,0,10.5-0.6,15.5-1.8c6.9,34.7,37,60.8,73,60.8c27.1,0,50.9-14.8,63.9-36.9c7.6,7.4,17.8,11.9,29.1,11.9
		c22.8,0,41.3-18.5,42.4-41.8c7.4,10.2,19.2,16.8,32.6,16.8c8.4,0,16.2-2.6,22.6-7.1c5.7,32.4,33.5,57.1,66.9,57.1
		c34.2,0,62.5-25.8,67.3-59.4c11,7.8,24.3,12.4,38.7,12.4c9.9,0,19.3-2.2,27.8-6.1c10.7,28.7,37.8,49.1,69.7,49.1
		c27.1,0,50.9-14.8,63.9-36.9c7.6,7.4,17.8,11.9,29.1,11.9c22.8,0,41.3-18.5,42.4-41.8c7.4,10.2,19.2,16.8,32.6,16.8
		c8.4,0,16.2-2.6,22.6-7.1c5.7,32.4,33.5,57.1,66.9,57.1c34.2,0,62.5-25.8,67.3-59.4c11,7.8,24.3,12.4,38.7,12.4
		c5.3,0,10.5-0.6,15.5-1.8c6.9,34.7,37,60.8,73,60.8c41.1,0,74.5-34,74.5-76C4049.5,122.5,4016.1,88.5,3975,88.5z"/>
</g>
</svg>
